<svg width="145" height="62" viewBox="0 0 145 62" fill="none" xmlns="http://www.w3.org/2000/svg">
<path fill-rule="evenodd" clip-rule="evenodd" d="M47.5977 36.4594V37.0772H47.6052C47.9331 50.4432 58.8709 61.1775 72.3158 61.1775C81.1544 61.1775 88.9095 56.5385 93.279 49.5625L88.3682 41.0192C86.3849 48.0183 79.9481 53.1459 72.3136 53.1459C63.0989 53.1459 55.6289 45.6759 55.6289 36.4611C55.6289 27.2464 63.0989 19.7764 72.3136 19.7764C79.1444 19.7764 85.0165 23.8812 87.5976 29.7588L95.8343 44.0879C96.6131 41.6853 97.0339 39.1215 97.0339 36.4594C97.0339 22.8079 85.9672 11.7413 72.3158 11.7413C65.8851 11.7413 60.028 14.1969 55.631 18.2217V0H47.5977V36.4594Z" fill="#F85149"/>
<path fill-rule="evenodd" clip-rule="evenodd" d="M103.25 31.8365C105.255 24.8704 111.675 19.7744 119.286 19.7744C128.501 19.7744 135.971 27.2444 135.971 36.4592C135.971 45.6739 128.501 53.1439 119.286 53.1439C112.141 53.1439 106.044 48.6517 103.666 42.3373L103.605 42.3729L95.7857 28.7705C94.9943 31.1905 94.5664 33.7749 94.5664 36.4593C94.5664 50.1108 105.633 61.1775 119.285 61.1775C126.021 61.1775 132.128 58.4829 136.586 54.1129V61.1787H144.001V37.0785H143.995C144 36.8728 144.003 36.6663 144.003 36.4593C144.003 22.8079 132.936 11.7412 119.285 11.7412C110.465 11.7412 102.724 16.3602 98.3496 23.3111L103.25 31.8365Z" fill="#234CC0"/>
<path fill-rule="evenodd" clip-rule="evenodd" d="M24.7181 61.1794C31.4563 61.1794 37.5647 58.4833 42.0234 54.111V61.1787H49.4389V56.074L40.7779 41.0068C38.7987 48.0122 32.3588 53.1458 24.7199 53.1458C15.5052 53.1458 8.03516 45.6758 8.03516 36.4611C8.03516 27.2464 15.5052 19.7764 24.7199 19.7764C31.5196 19.7764 37.3694 23.844 39.9685 29.6788L49.4389 46.1541V37.0785H49.4287C49.4337 36.8734 49.4363 36.6676 49.4363 36.4613C49.4363 22.8098 38.3696 11.7432 24.7181 11.7432C11.0667 11.7432 0 22.8098 0 36.4613C0 50.1127 11.0667 61.1794 24.7181 61.1794Z" fill="#234CC0"/>
<mask id="mask0_1_1151" style="mask-type:alpha" maskUnits="userSpaceOnUse" x="94" y="11" width="50" height="51">
<path fill-rule="evenodd" clip-rule="evenodd" d="M103.237 31.8248C105.244 24.8627 111.663 19.7705 119.271 19.7705C128.485 19.7705 135.955 27.2405 135.955 36.4552C135.955 45.67 128.485 53.14 119.271 53.14C112.127 53.14 106.032 48.6503 103.653 42.3387L103.597 42.3709L95.7725 28.7591C94.9796 31.1813 94.5508 33.7683 94.5508 36.4554C94.5508 50.1069 105.617 61.1736 119.269 61.1736C126.009 61.1736 132.119 58.4759 136.578 54.1013V61.1748H143.994V37.0746H143.979C143.984 36.8688 143.987 36.6624 143.987 36.4554C143.987 22.804 132.92 11.7373 119.269 11.7373C110.452 11.7373 102.713 16.3538 98.3375 23.3016L103.237 31.8248Z" fill="#234CC0"/>
</mask>
<g mask="url(#mask0_1_1151)">
<circle cx="72.308" cy="36.4574" r="24.7181" fill="#F85149"/>
</g>
</svg>
