<svg width="92" height="40" viewBox="0 0 92 40" fill="none" xmlns="http://www.w3.org/2000/svg">
<path fill-rule="evenodd" clip-rule="evenodd" d="M30.0712 23.7099V24.1003H30.0759C30.2831 32.5471 37.1953 39.3307 45.6919 39.3307C51.2803 39.3307 56.1832 36.3962 58.9439 31.984L55.8412 26.5865C54.5893 31.0118 50.5205 34.2542 45.6943 34.2542C39.871 34.2542 35.1503 29.5335 35.1503 23.7102C35.1503 17.8869 39.871 13.1662 45.6943 13.1662C50.0006 13.1662 53.7039 15.7477 55.3412 19.4476L60.5574 28.5221C61.0478 27.0063 61.3127 25.3891 61.3127 23.7099C61.3127 15.0828 54.319 8.08918 45.6919 8.08918C41.628 8.08918 37.9266 9.64107 35.1479 12.1845V0.669189H30.0712V23.7099Z" fill="#F85149"/>
<path fill-rule="evenodd" clip-rule="evenodd" d="M65.2513 20.7898C66.5174 16.3865 70.5754 13.1651 75.3859 13.1651C81.2092 13.1651 85.93 17.8858 85.93 23.7091C85.93 29.5324 81.2092 34.2531 75.3859 34.2531C70.8703 34.2531 67.0176 31.4144 65.5151 27.4242L65.4747 27.4474L60.5335 18.8513C60.0336 20.3805 59.7632 22.0135 59.7632 23.7096C59.7632 32.3367 66.7569 39.3304 75.384 39.3304C79.6407 39.3304 83.4997 37.6278 86.3171 34.8665V39.3307H91.0034V24.1004H91C91.0032 23.9705 91.0048 23.8403 91.0048 23.7096C91.0048 15.0825 84.0111 8.08887 75.384 8.08887C69.8102 8.08887 64.9183 11.0081 62.1537 15.4011L65.2513 20.7898Z" fill="#234CC0"/>
<path fill-rule="evenodd" clip-rule="evenodd" d="M15.6208 39.3306C19.8798 39.3306 23.7407 37.6262 26.5585 34.8622V39.3303H31.2448V36.1077L25.7703 26.5839C24.5191 31.0104 20.4497 34.254 15.6227 34.254C9.79939 34.254 5.07867 29.5332 5.07867 23.7099C5.07867 17.8866 9.79939 13.1659 15.6227 13.1659C19.9231 13.1659 23.6222 15.7404 25.2629 19.4323L31.2448 29.8387V24.1001H31.2368C31.2399 23.9704 31.2415 23.8403 31.2415 23.7099C31.2415 15.0828 24.2479 8.08911 15.6208 8.08911C6.99365 8.08911 0 15.0828 0 23.7099C0 32.337 6.99365 39.3306 15.6208 39.3306Z" fill="#234CC0"/>
<mask id="mask0_1_9" style="mask-type:alpha" maskUnits="userSpaceOnUse" x="59" y="8" width="32" height="32">
<path fill-rule="evenodd" clip-rule="evenodd" d="M65.2384 20.7819C66.507 16.3825 70.5631 13.1648 75.3709 13.1648C81.1942 13.1648 85.9149 17.8855 85.9149 23.7088C85.9149 29.5321 81.1942 34.2529 75.3709 34.2529C70.8564 34.2529 67.0045 31.4157 65.5012 27.4271L65.4662 27.4472L60.5208 18.8438C60.0194 20.375 59.7482 22.0105 59.7482 23.7094C59.7482 32.3365 66.7418 39.3302 75.3689 39.3302C79.6272 39.3302 83.4876 37.6262 86.3053 34.863V39.3304H90.9916V24.1002H90.9849C90.9881 23.9703 90.9897 23.84 90.9897 23.7094C90.9897 15.0823 83.996 8.08862 75.3689 8.08862C69.7975 8.08862 64.9073 11.0054 62.1421 15.3954L65.2384 20.7819Z" fill="#234CC0"/>
</mask>
<g mask="url(#mask0_1_9)">
<circle cx="45.6927" cy="23.7106" r="15.6208" fill="#F85149"/>
</g>
</svg>
